<svg width="30" height="30" viewBox="0 0 30 30" fill="none" xmlns="http://www.w3.org/2000/svg">
<path d="M23.748 11.25L18.75 0H16.248L21.2461 11.25H23.748ZM13.752 0H11.25L6.25195 11.25H8.75391L13.752 0ZM2.50195 27.498C2.50195 28.875 3.62109 30 5.00391 30H25.002C26.3789 30 27.5039 28.8809 27.5039 27.498L28.752 16.248H1.24805L2.50195 27.498ZM21.252 18.75H23.7539L22.5 27.498H19.998L21.252 18.75ZM13.752 18.75H16.2539V27.498H13.752V18.75ZM8.74805 18.75L9.99609 27.498H7.5L6.25195 18.75H8.74805ZM28.752 12.498H1.24805C0.556641 12.498 0 13.0605 0 13.752V15H30V13.752C30 13.0605 29.4434 12.498 28.752 12.498Z" fill="#4ECB71"/>
</svg>
