<svg width="17" height="17" viewBox="0 0 17 17" fill="none" xmlns="http://www.w3.org/2000/svg">
<path d="M15.7582 6.50113C15.7034 6.32696 15.5977 6.17318 15.4547 6.05957C15.3117 5.94596 15.1381 5.87772 14.956 5.86363L11.0075 5.5223C10.9836 5.51995 10.9608 5.51118 10.9415 5.49691C10.9222 5.48265 10.9072 5.46343 10.8979 5.44128L9.35531 1.76503C9.28387 1.59733 9.1647 1.45432 9.01263 1.35381C8.86056 1.2533 8.68229 1.19971 8.5 1.19971C8.31771 1.19971 8.13944 1.2533 7.98737 1.35381C7.8353 1.45432 7.71613 1.59733 7.64469 1.76503L6.10207 5.44128C6.09283 5.46343 6.07776 5.48265 6.05847 5.49691C6.03917 5.51118 6.01638 5.51995 5.9925 5.5223L2.04398 5.86363C1.86193 5.87772 1.68825 5.94596 1.5453 6.05957C1.40234 6.17318 1.29664 6.32696 1.2418 6.50113C1.18371 6.67554 1.17864 6.86326 1.22722 7.04056C1.2758 7.21786 1.37585 7.37677 1.51473 7.49722L4.51031 10.1103C4.52865 10.1266 4.54228 10.1475 4.54976 10.1709C4.55723 10.1943 4.55829 10.2192 4.55281 10.2431L3.65234 14.1285C3.61037 14.3074 3.62234 14.4948 3.68676 14.6668C3.75117 14.8389 3.86514 14.9881 4.01426 15.0954C4.16107 15.2037 4.33697 15.2656 4.51927 15.2729C4.70156 15.2802 4.88187 15.2328 5.03691 15.1366L8.43094 13.078C8.45089 13.0657 8.47388 13.0591 8.49734 13.0591C8.5208 13.0591 8.5438 13.0657 8.56375 13.078L11.9578 15.1366C12.1144 15.2325 12.296 15.2799 12.4795 15.2727C12.6631 15.2655 12.8404 15.2041 12.989 15.0963C13.1377 14.9885 13.2511 14.839 13.315 14.6668C13.3788 14.4945 13.3902 14.3072 13.3477 14.1285L12.4498 10.2418C12.4444 10.2179 12.4454 10.1929 12.4529 10.1696C12.4604 10.1462 12.474 10.1253 12.4923 10.109L15.4879 7.49589C15.6261 7.37524 15.7255 7.21641 15.7736 7.0394C15.8217 6.86239 15.8163 6.67511 15.7582 6.50113ZM14.9613 6.89425L11.9657 9.50734C11.8381 9.6184 11.7432 9.76219 11.6912 9.9232C11.6393 10.0842 11.6322 10.2564 11.6709 10.4211L12.5687 14.3078C12.5753 14.334 12.5739 14.3615 12.5645 14.3867C12.5551 14.412 12.5383 14.4338 12.5162 14.4493C12.4963 14.4653 12.4717 14.4745 12.4462 14.4756C12.4206 14.4766 12.3954 14.4695 12.3741 14.4553L8.98012 12.3967C8.83541 12.3087 8.66933 12.2622 8.5 12.2622C8.33066 12.2622 8.16458 12.3087 8.01988 12.3967L4.62586 14.4553C4.60462 14.4695 4.57938 14.4766 4.55383 14.4756C4.52827 14.4745 4.50372 14.4653 4.48375 14.4493C4.46169 14.4338 4.44486 14.412 4.43549 14.3867C4.42612 14.3615 4.42465 14.334 4.43129 14.3078L5.3291 10.4211C5.36775 10.2564 5.36072 10.0842 5.30877 9.9232C5.25681 9.76219 5.1619 9.6184 5.03426 9.50734L2.03867 6.89425C2.01818 6.87683 2.00347 6.8536 1.99647 6.82763C1.98948 6.80166 1.99053 6.77418 1.99949 6.74882C2.0062 6.72357 2.02074 6.7011 2.04102 6.68463C2.06131 6.66816 2.08629 6.65855 2.11238 6.65718L6.06156 6.31585C6.23063 6.30145 6.39253 6.24105 6.52972 6.1412C6.66691 6.04135 6.77416 5.90586 6.83984 5.74941L8.38246 2.07316C8.39319 2.05034 8.41018 2.03105 8.43147 2.01754C8.45275 2.00402 8.47744 1.99685 8.50266 1.99685C8.52787 1.99685 8.55256 2.00402 8.57384 2.01754C8.59513 2.03105 8.61213 2.05034 8.62285 2.07316L10.1602 5.74941C10.2256 5.90548 10.3325 6.04073 10.4692 6.14055C10.6058 6.24037 10.7672 6.30098 10.9358 6.31585L14.885 6.65718C14.9111 6.65855 14.936 6.66816 14.9563 6.68463C14.9766 6.7011 14.9911 6.72357 14.9979 6.74882C15.0071 6.77392 15.0086 6.80123 15.0021 6.82718C14.9956 6.85313 14.9814 6.87651 14.9613 6.89425Z" fill="#FFC700"/>
</svg>
